<svg width="16" height="16" viewBox="0 0 16 16" fill="none" xmlns="http://www.w3.org/2000/svg">
<g clip-path="url(#clip0_50634_216)">
<path d="M15.4301 5.69403L10.7094 5.00803L8.60076 0.733359C8.53945 0.629264 8.45204 0.542975 8.34716 0.483025C8.24228 0.423075 8.12356 0.391541 8.00276 0.391541C7.88195 0.391541 7.76324 0.423075 7.65836 0.483025C7.55348 0.542975 7.46606 0.629264 7.40476 0.733359L5.29209 5.00803L0.571426 5.69403C0.448319 5.7118 0.332639 5.76365 0.237463 5.84373C0.142287 5.92381 0.0714116 6.02891 0.0328492 6.14717C-0.00571322 6.26542 -0.0104244 6.39211 0.0192482 6.5129C0.0489209 6.63369 0.111794 6.74377 0.200759 6.83069L3.61743 10.16L2.81143 14.862C2.79042 14.9846 2.80413 15.1107 2.85101 15.2259C2.89789 15.3411 2.97607 15.4409 3.07671 15.514C3.17735 15.5871 3.29643 15.6306 3.4205 15.6396C3.54456 15.6485 3.66866 15.6226 3.77876 15.5647L8.00076 13.3454L12.2228 15.5647C12.3329 15.6226 12.457 15.6485 12.581 15.6396C12.7051 15.6306 12.8242 15.5871 12.9248 15.514C13.0254 15.4409 13.1036 15.3411 13.1505 15.2259C13.1974 15.1107 13.2111 14.9846 13.1901 14.862L12.3841 10.16L15.8008 6.83069C15.8897 6.74386 15.9526 6.63388 15.9823 6.51319C16.0121 6.39249 16.0075 6.26589 15.9691 6.14767C15.9306 6.02945 15.8599 5.92433 15.7649 5.84417C15.6699 5.76401 15.5544 5.712 15.4314 5.69403H15.4301Z" fill="#FCD420"/>
</g>
<defs>
<clipPath id="clip0_50634_216">
<rect width="16" height="16" fill="white"/>
</clipPath>
</defs>
</svg>
